<?xml version="1.0" encoding="UTF-8"?>
<svg id="Layer_1" data-name="Layer 1" xmlns="http://www.w3.org/2000/svg" viewBox="0 0 138.38 84.78">
  <defs>
    <style>
      .cls-1 {
        fill: #09090b;
      }
    </style>
  </defs>
  <g>
    <path class="cls-1" d="M46.35,43.29h-1.67v8.15h-3.6v-19.45h5.78c4.06,0,6.03,1.29,6.03,5.54,0,5.17-2.66,5.76-6.54,5.76ZM45.97,34.62h-1.29v6.03h1.18c2.31,0,3.42-.59,3.42-3.09,0-2.37-1.13-2.93-3.31-2.93Z"/>
    <path class="cls-1" d="M61.55,51.81c-4.92,0-6.29-2.61-6.29-6.99v-12.83h3.55v12.48c0,2.07.03,4.71,2.8,4.71s2.85-2.48,2.85-4.57v-12.62h3.5v13.1c0,4.44-1.67,6.73-6.4,6.73Z"/>
    <path class="cls-1" d="M71.6,51.44v-19.45h3.6v16.76h6.05v2.69h-9.66Z"/>
    <path class="cls-1" d="M88.55,51.81c-4.44,0-6-1.67-6-6.03v-.21h3.66v.24c0,1.69.21,3.36,2.37,3.36,1.56,0,2.42-.89,2.42-2.45,0-1.67-1.21-2.37-2.88-3.39l-1.48-.91c-2.15-1.35-3.82-2.56-3.82-5.6,0-3.79,2.53-5.22,6.03-5.22s5.54,1.29,5.54,4.98v.75h-3.58v-.48c0-1.43-.32-2.61-2.13-2.61-1.43,0-2.23.91-2.23,2.29,0,1.56,1.29,2.39,2.77,3.28l1.29.78c2.53,1.53,4.12,2.64,4.12,5.84,0,4.01-2.5,5.38-6.08,5.38Z"/>
  </g>
  <g>
    <path class="cls-1" d="M56.09,13.5v-4.84h3v.49h-2.38v1.61h2.28v.49h-2.28v1.77h2.47v.49h-3.09Z"/>
    <path class="cls-1" d="M61.59,13.57c-.9,0-1.65-.38-1.71-1.37h.65c.03.62.52.88,1.08.88.54,0,1.15-.24,1.15-.86,0-.5-.46-.71-.96-.86l-.42-.13c-.69-.21-1.38-.48-1.38-1.31,0-.96.86-1.33,1.7-1.33s1.58.29,1.59,1.23h-.64c-.05-.56-.46-.75-.96-.75s-1.06.23-1.06.8c0,.43.46.64.82.76l.55.18c.69.23,1.39.47,1.39,1.34,0,1.02-.93,1.42-1.82,1.42Z"/>
    <path class="cls-1" d="M65.81,9.15v4.35h-.62v-4.35h-1.54v-.5h3.71v.5h-1.55Z"/>
    <path class="cls-1" d="M67.4,13.5v-.66h.68v.66h-.68Z"/>
    <path class="cls-1" d="M70.99,13.5v-.58c.63-.56,1.93-1.73,2.28-2.46.08-.18.13-.35.13-.56,0-.52-.34-.85-.83-.85-.53,0-.88.37-.88.93h-.64c.01-.94.7-1.42,1.54-1.42.76,0,1.45.41,1.45,1.29,0,.56-.4,1.18-.89,1.73-.25.28-.51.55-.76.79-.25.23-.68.64-.68.64h2.39v.49h-3.1Z"/>
    <path class="cls-1" d="M76.45,13.57c-1.36,0-1.62-1.46-1.62-2.58s.36-2.44,1.65-2.44,1.61,1.35,1.61,2.46-.31,2.56-1.65,2.56ZM76.49,9.03c-.94,0-1.02,1.33-1.02,2.05,0,.68.1,2,.98,2s1.02-1.28,1.02-2-.08-2.06-.98-2.06Z"/>
    <path class="cls-1" d="M78.76,13.5v-.58c.63-.56,1.93-1.73,2.28-2.46.08-.18.13-.35.13-.56,0-.52-.34-.85-.83-.85-.53,0-.88.37-.88.93h-.64c.01-.94.7-1.42,1.54-1.42.76,0,1.45.41,1.45,1.29,0,.56-.4,1.18-.89,1.73-.25.28-.51.55-.76.79-.25.23-.68.64-.68.64h2.39v.49h-3.1Z"/>
    <path class="cls-1" d="M84.16,13.5v-4.21c-.31.3-.67.52-1.07.69v-.56c.45-.18.79-.42,1.14-.76h.53v4.84h-.6Z"/>
  </g>
  <g>
    <path class="cls-1" d="M43.28,76.15v-4.84h.63v4.84h-.63ZM46.17,76.15l-2.24-2.63,2.04-2.21h.8l-2.12,2.17,2.35,2.67h-.82Z"/>
    <path class="cls-1" d="M47.64,76.15v-4.84h.63v4.84h-.63Z"/>
    <path class="cls-1" d="M51.14,71.8v4.35h-.62v-4.35h-1.54v-.5h3.71v.5h-1.55Z"/>
    <path class="cls-1" d="M55.2,76.23c-1.49,0-2.12-1.09-2.12-2.45s.71-2.55,2.16-2.55c.8,0,1.67.41,1.69,1.33h-.66c-.05-.56-.52-.81-1.04-.81-1.09,0-1.49,1.07-1.49,2s.35,1.96,1.47,1.96c.62,0,1.04-.35,1.08-.86h.68c-.12,1.01-.86,1.37-1.77,1.37Z"/>
    <path class="cls-1" d="M61.08,76.15v-2.24h-2.51v2.24h-.63v-4.84h.63v2.11h2.51v-2.11h.63v4.84h-.63Z"/>
    <path class="cls-1" d="M63.02,76.15v-4.84h3v.49h-2.38v1.61h2.28v.49h-2.28v1.77h2.47v.49h-3.1Z"/>
    <path class="cls-1" d="M70.07,76.15l-2.4-4.2v4.2h-.57v-4.84h.84l2.4,4.21v-4.21h.57v4.84h-.84Z"/>
    <path class="cls-1" d="M77.4,73.79v2.36h-1.67c-.86,0-1.9-.24-1.9-1.36,0-.74.49-1.13,1.14-1.25-.42-.09-.92-.31-.92-1.08,0-.88.88-1.25,1.6-1.25.29,0,.6.04.89.09v.52c-.26-.07-.52-.12-.78-.12-.52,0-1.09.2-1.09.84,0,.72.79.82,1.32.82h.81v-1.05h.6v1.05h.88v.45h-.88ZM76.81,73.8h-.83c-.62,0-1.49.07-1.49.92s.98.94,1.61.94h.71v-1.86Z"/>
    <path class="cls-1" d="M82.61,76.15h-1.63v-4.84h1.71c.76,0,1.54.33,1.54,1.21,0,.6-.35.95-.9,1.1.66.12,1.1.46,1.1,1.19,0,1.09-.92,1.35-1.82,1.35ZM82.63,71.8h-1.03v1.61h.94c.56,0,1.04-.21,1.04-.84,0-.56-.44-.77-.95-.77ZM82.62,73.88h-1.02v1.78h.83c.64,0,1.34-.07,1.34-.88,0-.72-.52-.9-1.15-.9Z"/>
    <path class="cls-1" d="M88.73,76.15l-.5-1.28h-2.34l-.5,1.28h-.64l1.97-4.84h.69l2.04,4.84h-.72ZM87.03,71.85l-.97,2.55h1.98l-1-2.55Z"/>
    <path class="cls-1" d="M92.92,76.15c-.15-.38-.16-.79-.19-1.19-.07-.71-.11-1.05-.92-1.05h-1.03v2.24h-.63v-4.84h1.73c.79,0,1.63.24,1.63,1.19,0,.64-.38.98-.96,1.15.62.13.77.48.82,1,.03.32.04.66.11,1.03.03.18.07.34.16.47h-.71ZM91.73,71.79h-.96v1.64h.78c.61,0,1.3-.09,1.3-.86,0-.68-.57-.78-1.13-.78Z"/>
  </g>
  <polygon class="cls-1" points="18.65 23.7 17.68 23.7 17.68 10.61 53.2 10.61 53.2 11.58 18.65 11.58 18.65 23.7"/>
  <polygon class="cls-1" points="120.71 23.7 119.74 23.7 119.74 11.58 87.23 11.58 87.23 10.61 120.71 10.61 120.71 23.7"/>
  <polygon class="cls-1" points="39.17 74.5 17.68 74.5 17.68 61.4 18.65 61.4 18.65 73.52 39.17 73.52 39.17 74.5"/>
  <polygon class="cls-1" points="120.71 74.5 99.22 74.5 99.22 73.52 119.74 73.52 119.74 61.4 120.71 61.4 120.71 74.5"/>
</svg>
