<?xml version="1.0" encoding="UTF-8"?>
<svg id="Layer_1" data-name="Layer 1" xmlns="http://www.w3.org/2000/svg" viewBox="0 0 138.38 84.78">
  <defs>
    <style>
      .cls-1 {
        fill: #09090b;
      }
    </style>
  </defs>
  <path class="cls-1" d="M22.24,45.05h-3.54v17.29h-7.65V21.08h12.27c8.62,0,12.78,2.74,12.78,11.76,0,10.96-5.65,12.21-13.87,12.21ZM21.44,26.67h-2.74v12.78h2.51c4.91,0,7.25-1.26,7.25-6.56,0-5.02-2.4-6.22-7.02-6.22Z"/>
  <path class="cls-1" d="M54.47,63.14c-10.44,0-13.35-5.54-13.35-14.84v-27.22h7.53v26.48c0,4.39.06,9.99,5.93,9.99s6.05-5.25,6.05-9.7v-26.76h7.42v27.79c0,9.42-3.54,14.27-13.58,14.27Z"/>
  <path class="cls-1" d="M75.81,62.34V21.08h7.65v35.55h12.84v5.71h-20.49Z"/>
  <path class="cls-1" d="M111.75,63.14c-9.42,0-12.73-3.54-12.73-12.78v-.46h7.76v.51c0,3.6.46,7.13,5.02,7.13,3.31,0,5.14-1.88,5.14-5.19,0-3.54-2.57-5.02-6.11-7.19l-3.14-1.94c-4.56-2.85-8.1-5.42-8.1-11.87,0-8.05,5.36-11.07,12.78-11.07s11.75,2.74,11.75,10.56v1.6h-7.59v-1.03c0-3.02-.68-5.54-4.51-5.54-3.02,0-4.74,1.94-4.74,4.85,0,3.31,2.74,5.08,5.88,6.96l2.74,1.66c5.36,3.25,8.73,5.59,8.73,12.38,0,8.5-5.31,11.41-12.9,11.41Z"/>
</svg>
